<?xml version="1.0" standalone="no"?>
<svg version="1.0" xmlns="http://www.w3.org/2000/svg"
     width="2600.000000pt" height="2600.000000pt" viewBox="0 0 2600.000000 2600.000000"
     preserveAspectRatio="xMidYMid meet">

    <g transform="translate(0.000000,2600.000000) scale(0.100000,-0.100000)"
       fill="#000000" stroke="none">
        <path d="M11775 13127 c-131 -44 -216 -149 -248 -307 l-13 -60 -34 36 c-48 49
-153 117 -225 144 -86 34 -244 34 -330 0 -76 -29 -120 -58 -167 -106 -38 -41
-88 -135 -88 -169 -1 -56 -84 -171 -154 -214 -50 -32 -119 -43 -172 -30 -86
22 -153 114 -137 190 8 40 62 85 112 94 46 8 52 24 19 54 -102 96 -284 -49
-266 -212 15 -131 138 -241 285 -254 110 -10 247 51 311 138 l29 39 31 -49
c100 -153 313 -199 448 -96 20 15 44 41 55 59 25 41 25 120 0 166 -35 67 -119
100 -166 67 -17 -13 -16 -14 13 -20 53 -11 79 -50 72 -112 -5 -50 -69 -85
-156 -85 -106 0 -169 69 -168 185 1 133 91 217 249 232 171 16 325 -81 485
-306 81 -115 148 -173 268 -232 133 -65 251 -91 417 -93 159 -1 213 10 346 71
l82 37 -74 16 c-93 20 -175 63 -284 151 -69 56 -85 65 -85 48 0 -30 33 -88 80
-141 23 -26 39 -52 36 -57 -19 -31 -187 -40 -281 -16 -97 26 -143 53 -236 144
-130 128 -176 238 -150 363 24 116 104 182 222 183 55 0 72 -4 106 -27 22 -14
47 -42 56 -61 36 -76 7 -206 -50 -228 -48 -18 -101 4 -122 52 -20 43 -31 35
-31 -22 0 -72 69 -129 156 -129 83 0 138 44 175 140 26 67 22 152 -9 223 -28
63 -104 141 -167 173 -65 31 -179 41 -240 21z"/>
        <path d="M14090 13127 c-180 -51 -293 -255 -231 -417 12 -30 30 -65 40 -77 92
-110 291 -65 291 66 0 57 -11 65 -31 22 -21 -48 -74 -70 -122 -52 -57 22 -86
152 -50 228 9 19 34 47 56 61 34 23 51 27 106 27 118 -1 198 -67 222 -183 26
-125 -20 -235 -150 -363 -93 -91 -139 -118 -236 -144 -94 -24 -262 -15 -281
16 -3 5 13 31 36 57 47 53 80 111 80 141 0 17 -16 8 -85 -48 -109 -88 -191
-131 -284 -151 l-74 -16 82 -37 c133 -61 187 -72 346 -71 166 2 284 28 417 93
120 59 187 117 268 232 160 225 314 322 485 306 158 -15 248 -99 249 -232 1
-116 -62 -185 -168 -185 -87 0 -151 35 -156 85 -7 62 19 101 72 112 29 6 30 7
13 20 -47 33 -131 0 -166 -67 -25 -46 -25 -125 0 -166 11 -18 35 -44 55 -59
133 -101 346 -58 445 91 l29 45 27 -35 c37 -48 119 -101 190 -121 80 -24 159
-16 241 25 170 83 217 279 96 403 -60 62 -150 74 -200 26 -33 -30 -27 -46 19
-54 50 -9 104 -54 112 -94 15 -76 -51 -168 -136 -189 -76 -20 -152 4 -223 70
-59 55 -83 96 -99 172 -18 83 -43 132 -97 182 -53 50 -77 65 -153 94 -86 34
-244 34 -330 0 -72 -27 -177 -95 -225 -144 l-34 -36 -12 60 c-29 137 -106 246
-209 291 -60 27 -162 34 -225 16z"/>
        <path d="M12570 13056 c-127 -37 -211 -100 -257 -195 -24 -48 -28 -68 -28
-141 0 -96 18 -141 77 -196 60 -57 114 -79 199 -79 67 0 81 3 125 30 64 40 94
85 94 142 0 81 -52 143 -120 143 -21 0 -43 -7 -50 -15 -10 -13 -9 -15 8 -15
28 0 70 -39 77 -70 18 -76 -133 -142 -215 -93 -77 45 -95 184 -34 260 16 21
54 50 84 66 125 64 290 17 444 -126 l46 -43 46 43 c154 143 319 190 444 126
30 -16 68 -45 84 -66 61 -76 43 -215 -34 -260 -82 -49 -233 17 -215 93 7 31
49 70 77 70 17 0 18 2 8 15 -7 8 -29 15 -50 15 -68 0 -120 -62 -120 -143 0
-57 30 -102 94 -142 44 -27 58 -30 125 -30 60 0 86 5 121 24 58 30 106 76 133
126 31 56 30 190 0 257 -80 176 -324 264 -523 189 -30 -12 -85 -42 -122 -67
l-68 -46 -67 46 c-38 25 -93 56 -123 67 -68 26 -197 34 -260 15z"/>
        <path d="M1090 12779 c-53 -21 -100 -84 -100 -134 0 -46 30 -95 71 -115 47
-24 72 -25 90 -3 22 26 89 51 190 70 86 16 163 18 904 15 2634 -8 6663 -49
7223 -72 212 -9 227 -8 285 11 79 26 189 80 194 96 5 13 -111 71 -202 101 -54
18 -74 19 -195 12 -364 -23 -2764 -49 -7015 -76 -1001 -6 -1124 -3 -1255 28
-54 13 -112 41 -129 62 -15 18 -26 19 -61 5z"/>
        <path d="M24840 12775 c-18 -22 -75 -50 -130 -63 -131 -31 -254 -34 -1255 -28
-4251 27 -6651 53 -7015 76 -121 7 -141 6 -195 -12 -91 -30 -207 -88 -202
-101 5 -16 115 -70 194 -96 58 -19 73 -20 285 -11 560 23 4589 64 7223 72 741
3 818 1 904 -15 101 -19 168 -44 190 -70 18 -22 43 -21 90 3 42 21 71 69 71
118 0 75 -122 173 -160 127z"/>
        <path d="M12959 12597 c-21 -14 -39 -38 -48 -63 -13 -38 -13 -42 7 -62 49 -49
81 -195 83 -376 1 -117 7 -157 26 -163 18 -6 24 27 33 188 11 206 34 302 82
355 19 22 19 22 -2 63 -39 77 -116 102 -181 58z"/>
        <path d="M12732 12398 c-22 -22 -12 -46 39 -89 60 -50 102 -119 125 -208 26
-101 37 -99 31 4 -3 54 -14 115 -28 154 -37 107 -125 181 -167 139z"/>
        <path d="M13215 12366 c-55 -57 -85 -142 -92 -261 -6 -103 5 -105 31 -4 23 89
65 158 125 208 51 43 61 67 39 89 -24 24 -60 13 -103 -32z"/>
    </g>
</svg>
