<?xml version="1.1" standalone="no"?>
<svg version="1.1" xmlns="http://www.w3.org/2000/svg"
 width="2500.000000pt" height="600.000000pt" viewBox="0 0 2500.000000 600.000000"
 preserveAspectRatio="xMidYMid meet">

<g transform="translate(0.000000,600.000000) scale(0.100000,-0.100000)"
fill="#000000" stroke="none">
<path d="M12467 5510 c-47 -37 -146 -170 -181 -243 -108 -226 -76 -515 90
-813 41 -73 133 -199 139 -192 7 8 176 380 194 428 62 161 83 327 57 450 -30
144 -138 314 -233 367 l-40 23 -26 -20z"/>
<path d="M11024 4900 c-232 -46 -383 -146 -499 -328 -49 -78 -48 -79 30 -22
78 57 153 96 240 126 73 26 92 28 220 28 123 -1 151 -4 230 -28 226 -67 440
-201 635 -396 359 -359 565 -822 496 -1114 -58 -247 -303 -555 -531 -668 -131
-65 -259 -78 -378 -39 -172 57 -307 231 -308 395 -1 106 56 216 150 289 64 50
160 59 231 22 58 -30 27 -57 -77 -70 -66 -8 -99 -34 -114 -87 -45 -170 168
-263 327 -142 85 65 117 194 75 305 -24 64 -67 107 -280 284 -73 61 -157 130
-186 155 -362 307 -494 406 -671 504 -115 64 -244 117 -360 146 -91 24 -283
42 -360 34 -469 -45 -769 -292 -933 -769 l-37 -110 -2590 0 -2589 0 -115 24
c-429 89 -718 312 -795 616 -60 235 56 501 273 628 169 99 314 88 432 -33 129
-133 160 -342 64 -438 -30 -30 -39 -34 -71 -29 -37 6 -83 43 -110 88 -19 33
-63 59 -97 59 -82 0 -76 -178 9 -278 49 -56 112 -80 172 -64 92 25 198 124
254 238 58 118 51 267 -19 407 -156 312 -575 353 -859 84 -162 -154 -244 -357
-230 -572 8 -118 27 -190 82 -300 99 -201 244 -328 504 -441 l76 -33 -150 -4
c-82 -2 -373 -2 -645 -1 -546 3 -552 3 -737 68 -157 55 -225 69 -348 68 -129
0 -203 -12 -340 -53 -90 -28 -325 -131 -325 -142 0 -9 122 -73 200 -107 133
-56 242 -81 385 -87 153 -6 198 3 374 77 64 27 136 54 161 61 49 14 64 14
4451 19 2578 3 2526 3 2551 -34 19 -29 8 -57 -29 -73 -34 -14 -102 -15 -573
-12 -294 2 -1498 4 -2675 4 -1729 0 -2155 -3 -2220 -13 -270 -45 -463 -152
-596 -329 -108 -144 -156 -309 -146 -497 10 -191 75 -334 217 -476 68 -69 102
-94 170 -128 103 -50 150 -61 256 -62 182 0 355 89 450 232 87 130 119 305 80
433 -31 100 -133 198 -239 230 -141 42 -260 -6 -318 -129 -56 -118 -23 -218
61 -191 13 4 57 40 99 80 85 81 107 95 148 95 72 0 139 -131 131 -255 -9 -128
-102 -261 -227 -322 -51 -26 -66 -28 -167 -28 -110 0 -111 0 -196 42 -136 68
-228 178 -284 343 -30 88 -26 252 10 354 88 256 306 422 636 483 90 17 242 18
2745 15 1457 -2 2653 -5 2656 -8 3 -2 9 -47 12 -101 12 -189 84 -394 182 -513
93 -114 237 -207 380 -245 140 -38 339 -30 485 20 148 50 330 167 448 288 l53
54 -75 27 -75 28 -72 -61 c-209 -176 -398 -261 -579 -261 -148 1 -242 35 -341
127 -140 131 -249 358 -282 595 l-5 36 66 4 c101 6 1831 -2 1880 -8 l42 -5 0
-62 c1 -284 115 -493 325 -598 269 -133 603 -71 830 156 29 30 98 111 151 181
54 69 100 121 102 115 7 -21 -30 -166 -63 -246 -77 -187 -202 -365 -368 -521
-101 -97 -167 -145 -265 -194 -115 -57 -211 -80 -341 -81 -123 0 -113 -10 37
-35 169 -29 338 -7 477 64 226 114 425 342 561 644 21 48 41 88 44 88 3 0 29
-47 58 -104 109 -215 271 -423 415 -532 81 -61 219 -126 332 -156 78 -20 112
-23 260 -22 110 1 197 7 245 16 72 15 73 16 28 17 -88 2 -276 31 -364 56 -386
110 -711 443 -854 874 -36 108 -80 296 -80 338 0 10 38 -54 83 -142 45 -88
103 -190 128 -225 61 -84 187 -206 268 -258 178 -115 405 -152 597 -96 113 32
192 80 276 167 113 115 167 257 168 439 l0 86 93 7 c119 8 1853 2 1862 -7 10
-9 -39 -155 -86 -257 -132 -286 -363 -484 -611 -522 -86 -14 -192 3 -282 44
-65 30 -186 142 -258 239 -48 65 -53 69 -82 64 -17 -3 -50 -8 -74 -12 -23 -4
-45 -10 -47 -15 -12 -18 85 -158 165 -240 121 -124 222 -183 365 -215 277 -62
620 93 833 375 108 143 188 331 207 484 4 31 10 59 14 61 4 3 1208 5 2676 6
2893 2 2742 5 2899 -50 126 -43 251 -130 323 -225 189 -247 166 -562 -57 -786
-97 -97 -162 -131 -269 -137 -98 -6 -167 14 -249 68 -112 75 -188 232 -162
330 27 99 75 160 126 160 26 0 46 -12 91 -53 71 -66 91 -77 138 -77 28 0 44 7
65 30 55 59 47 156 -19 221 -70 70 -179 76 -307 15 -83 -39 -131 -80 -172
-144 -109 -170 -74 -392 87 -553 110 -111 231 -157 379 -145 234 18 449 172
558 401 105 218 79 524 -60 730 -138 205 -327 315 -586 340 -36 4 -1765 8
-3842 8 l-3777 2 -60 59 c-33 33 -58 62 -55 65 3 3 1863 7 4132 9 2270 2 4323
4 4562 5 486 2 442 7 685 -76 109 -37 129 -41 220 -41 117 0 237 28 329 77
189 101 161 187 -89 274 -71 25 -94 28 -205 28 -124 0 -126 0 -260 -49 -310
-111 -339 -116 -705 -121 -202 -2 -701 14 -755 24 -3 1 24 17 59 36 454 245
615 790 351 1186 -60 90 -81 113 -151 170 -69 56 -157 96 -255 114 -95 19
-142 19 -223 0 -120 -29 -204 -83 -276 -178 -105 -138 -129 -331 -59 -475 33
-68 113 -148 178 -178 103 -48 243 -26 322 51 36 34 44 48 44 77 0 46 -36 98
-83 122 -50 24 -76 13 -150 -64 -31 -32 -67 -62 -78 -65 -32 -10 -69 23 -104
91 -26 51 -30 70 -30 139 0 69 4 89 31 145 42 89 84 134 157 169 114 55 212
50 347 -16 145 -71 262 -220 306 -393 22 -86 15 -250 -14 -340 -55 -168 -197
-333 -372 -433 -105 -60 -288 -119 -410 -131 -30 -3 -1228 -8 -2661 -11
l-2607 -4 -28 77 c-66 184 -144 314 -257 430 -158 162 -347 268 -582 329 -124
32 -355 43 -498 23 -367 -49 -763 -283 -1114 -657 -70 -74 -154 -151 -208
-190 -178 -129 -225 -194 -225 -310 0 -91 30 -162 91 -217 27 -25 66 -50 86
-57 83 -27 219 16 287 91 85 94 50 163 -96 190 -48 9 -133 2 -186 -17 -32 -11
70 85 117 110 25 14 69 29 97 32 134 18 262 -112 294 -296 30 -172 -69 -362
-231 -443 -93 -47 -163 -60 -284 -53 -113 5 -193 32 -293 97 -173 111 -345
335 -411 535 -71 215 -47 383 99 680 143 292 376 584 594 747 95 71 251 149
361 180 69 20 102 23 240 22 144 0 169 -3 248 -27 104 -32 144 -51 255 -124
46 -29 80 -48 76 -41 -179 303 -361 413 -679 413 -121 -1 -175 -9 -295 -47
-261 -83 -518 -314 -713 -639 -62 -105 -214 -411 -301 -609 -30 -68 -57 -118
-60 -110 -90 273 -119 347 -202 513 -243 486 -652 832 -1047 886 -99 14 -112
13 -223 -9z m-914 -744 c213 -38 415 -138 812 -402 156 -103 348 -230 428
-282 l145 -95 -253 7 c-139 4 -263 10 -275 13 -12 3 -440 7 -951 9 -512 3
-932 7 -935 10 -10 9 40 137 86 222 208 385 571 584 943 518z m5040 -61 c349
-73 620 -283 772 -600 22 -47 38 -89 34 -93 -8 -8 -2378 -3 -2386 5 -9 9 219
222 312 291 301 222 598 351 948 411 72 13 225 6 320 -14z m-4042 -822 l42 -8
-29 -61 c-27 -57 -32 -62 -68 -67 -65 -9 -1916 3 -1953 13 -57 15 -80 37 -80
75 0 19 6 37 12 41 7 5 98 10 203 14 283 8 1823 2 1873 -7z"/>
<path d="M1736 4098 c24 -188 123 -350 277 -451 123 -82 250 -117 424 -117
l112 0 -51 93 c-54 96 -116 186 -177 250 -130 139 -334 241 -544 271 l-48 7 7
-53z"/>
<path d="M22965 4092 c-182 -54 -320 -156 -417 -308 -15 -23 -49 -87 -77 -143
l-51 -101 112 0 c295 0 493 99 587 292 52 106 78 246 50 264 -26 16 -145 13
-204 -4z"/>
<path d="M22369 3077 c63 -164 283 -413 436 -494 87 -45 191 -77 298 -91 l67
-9 0 26 c-1 56 -31 167 -65 235 -107 217 -313 329 -650 352 l-96 7 10 -26z"/>
<path d="M2240 3044 c-87 -26 -192 -77 -245 -121 -57 -46 -126 -138 -165 -218
-39 -79 -87 -232 -76 -242 10 -10 221 38 290 67 230 96 388 246 505 478 l31
62 -127 -1 c-106 0 -143 -4 -213 -25z"/>
<path d="M12456 1939 c-106 -225 -139 -352 -139 -539 0 -94 6 -146 22 -210 21
-88 103 -263 145 -314 l24 -28 48 88 c98 181 138 351 123 526 -14 149 -112
496 -159 558 -16 21 -17 19 -64 -81z"/>
</g>
</svg>
